<svg xmlns="http://www.w3.org/2000/svg" data-name="Layer 1" viewBox="0 0 100 125" x="0px" y="0px"><title>Forward</title><path d="M50,0h0A50,50,0,0,0,0,50H0a50,50,0,0,0,50,50h0a50,50,0,0,0,50-50h0A50,50,0,0,0,50,0ZM74.46,51.32,55.38,70.46a2.25,2.25,0,0,1-1.44.6,1.81,1.81,0,0,1-1.34-.57A1.85,1.85,0,0,1,52,69.14V57.66H25V42.34H52V30.86a1.85,1.85,0,0,1,.57-1.35,1.82,1.82,0,0,1,1.34-.57,1.87,1.87,0,0,1,1.38.54L74.46,48.62A1.87,1.87,0,0,1,75,50,1.8,1.8,0,0,1,74.46,51.32Z"/><text x="0" y="115" fill="#000000" font-size="5px" font-weight="bold" font-family="'Helvetica Neue', Helvetica, Arial-Unicode, Arial, Sans-serif">Created by Rainbow Designs</text><text x="0" y="120" fill="#000000" font-size="5px" font-weight="bold" font-family="'Helvetica Neue', Helvetica, Arial-Unicode, Arial, Sans-serif">from the Noun Project</text></svg>