<svg id="Layer_1" data-name="Layer 1" xmlns="http://www.w3.org/2000/svg" viewBox="0 0 70 96.42"><defs><style>.cls-1{fill:#16869a;}.cls-2{fill:none;}</style></defs><title>070518_IceCore-Icons</title><path class="cls-1" d="M58.45,50.87a5.42,5.42,0,0,0-.71-2.08,5.65,5.65,0,0,0-1.41-1.63,5.56,5.56,0,0,0-2-1A5.4,5.4,0,0,0,52.13,46a5.71,5.71,0,0,0-2.08.71,5.54,5.54,0,0,0-1.63,1.42,5.24,5.24,0,0,0-.66,1.12l-3.61-1a8.91,8.91,0,0,0,0-2.63A9.2,9.2,0,0,0,37.41,38a9.11,9.11,0,0,0-3.6-.24,9.21,9.21,0,0,0-3.41,1.16,9.32,9.32,0,0,0-2.68,2.32,9.65,9.65,0,0,0-1.32,2.34l-3.66-1a6,6,0,0,0,0-1.2A5.58,5.58,0,0,0,22,39.26a5.48,5.48,0,0,0-1.41-1.62,5.62,5.62,0,0,0-4.2-1.14,5.46,5.46,0,0,0-2.08.7,5.68,5.68,0,0,0-1.63,1.42,5.62,5.62,0,0,0-1,2h0a5.64,5.64,0,0,0,.57,4.28,5.7,5.7,0,0,0,1.44,1.65,5.63,5.63,0,0,0,2,1,5.51,5.51,0,0,0,1.45.2,6.13,6.13,0,0,0,.74,0A5.65,5.65,0,0,0,20,47a5.59,5.59,0,0,0,1.65-1.45,5.42,5.42,0,0,0,.62-1l4.58,1.23A1,1,0,0,0,28,45a7.43,7.43,0,0,1,1.28-2.58,7.31,7.31,0,0,1,4.77-2.73,7.3,7.3,0,0,1,5.36,1.44A7.22,7.22,0,0,1,42,48.75a7,7,0,0,1-1.24,2.53,7.2,7.2,0,0,1-2.13,1.87,7.21,7.21,0,0,1-5.5.72,7.06,7.06,0,0,1-2.57-1.28,7.16,7.16,0,0,1-1.82-2.09L27,51.5a9.45,9.45,0,0,0,2.33,2.67,9.15,9.15,0,0,0,3.29,1.63,9.29,9.29,0,0,0,2.39.32A10,10,0,0,0,36.23,56a9.27,9.27,0,0,0,3.41-1.16,9.09,9.09,0,0,0,2.71-2.38,8.91,8.91,0,0,0,1.28-2.27l3.62,1a5.44,5.44,0,0,0,0,1.14A5.65,5.65,0,0,0,48,54.42a5.5,5.5,0,0,0,1.45,1.66,5.67,5.67,0,0,0,2,1,5.57,5.57,0,0,0,1.46.19,4.48,4.48,0,0,0,.73-.05,5.31,5.31,0,0,0,2.08-.71A5.59,5.59,0,0,0,57.34,55a5.72,5.72,0,0,0,1-2A5.58,5.58,0,0,0,58.45,50.87ZM20.64,43A3.42,3.42,0,0,1,20,44.29a3.58,3.58,0,0,1-1.07.94,3.81,3.81,0,0,1-1.34.46,3.59,3.59,0,0,1-1.42-.1A3.44,3.44,0,0,1,14.92,45,3.51,3.51,0,0,1,14,43.9a3.62,3.62,0,0,1-.46-1.34,3.78,3.78,0,0,1,.09-1.42,3.65,3.65,0,0,1,.65-1.29,3.52,3.52,0,0,1,1.05-.91,3.45,3.45,0,0,1,1.34-.46,3.79,3.79,0,0,1,1.42.09,3.9,3.9,0,0,1,1.29.64,3.71,3.71,0,0,1,.91,1.06A3.55,3.55,0,0,1,20.64,43Zm35.74,9.53a3.78,3.78,0,0,1-.63,1.27,3.71,3.71,0,0,1-2.41,1.39,3.63,3.63,0,0,1-2.69-.72,3.54,3.54,0,0,1-.93-1.07,3.75,3.75,0,0,1-.46-1.34A3.72,3.72,0,0,1,50,49.37a3.67,3.67,0,0,1,1-.91A3.81,3.81,0,0,1,52.39,48a3.6,3.6,0,0,1,1.42.1,3.47,3.47,0,0,1,1.29.64,3.52,3.52,0,0,1,.91,1,3.62,3.62,0,0,1,.46,1.34A3.78,3.78,0,0,1,56.38,52.55Z"/><rect class="cls-2" width="70" height="96.42"/></svg>