<svg id="Layer_1" data-name="Layer 1" xmlns="http://www.w3.org/2000/svg" viewBox="0 0 70 108.91"><defs><style>.cls-1{fill:#16869a;}.cls-2{fill:none;}</style></defs><title>070518_IceCore-Icons</title><path class="cls-1" d="M23.45,43.48a5.18,5.18,0,0,0,1.71-1.14,5.25,5.25,0,0,0,1.15-1.72,5.16,5.16,0,0,0,.4-2,5.29,5.29,0,0,0-7.34-4.88,5.25,5.25,0,0,0-1.69,1.14,5.18,5.18,0,0,0-1.14,1.71,5.29,5.29,0,0,0,1.14,5.76,5.89,5.89,0,0,0,.61.51l-7.8,2.52a1,1,0,0,0-.69,1L9.91,60.7l2,0L11.8,47l9.8-3.17A5.11,5.11,0,0,0,23.45,43.48Zm-5.07-6.14a3.36,3.36,0,0,1,.72-1.07,3.3,3.3,0,0,1,1-.71,3.23,3.23,0,0,1,1.27-.25,3.32,3.32,0,0,1,1.26.24,3.36,3.36,0,0,1,1.07.72,3.3,3.3,0,0,1,.71,1,3.35,3.35,0,0,1,0,2.54,3.14,3.14,0,0,1-.71,1.06,3.36,3.36,0,0,1-1.07.72,3.31,3.31,0,0,1-2.51,0,3.36,3.36,0,0,1-1.07-.72,3.32,3.32,0,0,1-.72-1.06,3.4,3.4,0,0,1-.24-1.26A3.36,3.36,0,0,1,18.38,37.34Z"/><path class="cls-1" d="M46.3,51.1l-7.77-2.52a4.76,4.76,0,0,0,.61-.5,5.28,5.28,0,0,0,1.55-3.75,5.41,5.41,0,0,0-.41-2.06,5.3,5.3,0,0,0-1.13-1.67,5.2,5.2,0,0,0-1.72-1.15,5.26,5.26,0,0,0-5.76,1.14,5.29,5.29,0,0,0,0,7.48,6.91,6.91,0,0,0,.6.5L24.43,51.1a1,1,0,0,0-.69,1l.12,14.38,2,0-.11-13.64,9.62-3.12L45,52.78l-.11,13.64,2,0L47,52.06A1,1,0,0,0,46.3,51.1Zm-13.93-8A3.14,3.14,0,0,1,33.08,42a3.24,3.24,0,0,1,2.33-1,3.22,3.22,0,0,1,2.32,1,3.37,3.37,0,0,1,.71,1,3.32,3.32,0,0,1,.25,1.28,3.2,3.2,0,0,1-1,2.33,3.18,3.18,0,0,1-1.07.71,3.22,3.22,0,0,1-2.51,0,3.29,3.29,0,0,1-2-3A3.22,3.22,0,0,1,32.37,43.07Z"/><path class="cls-1" d="M60.65,45.36l-7.8-2.52a7.37,7.37,0,0,0,.61-.5,5.38,5.38,0,0,0,1.14-1.72,5.34,5.34,0,0,0,0-4.08,5.3,5.3,0,0,0-6.93-2.82A5.1,5.1,0,0,0,46,34.86a5.28,5.28,0,0,0,1.71,8.62,5.11,5.11,0,0,0,1.85.39L59.34,47l-.11,13.64,2,0,.11-14.38A1,1,0,0,0,60.65,45.36ZM47.39,40.92a3.08,3.08,0,0,1-.71-1.07,3.14,3.14,0,0,1-.25-1.25,3.31,3.31,0,0,1,1-2.33,3.37,3.37,0,0,1,1-.71,3.33,3.33,0,0,1,1.29-.25,3.14,3.14,0,0,1,1.25.25,3.18,3.18,0,0,1,1.07.71,3.3,3.3,0,0,1,.71,1A3.25,3.25,0,0,1,53,38.6a3.31,3.31,0,0,1-.24,1.25A3.36,3.36,0,0,1,51,41.64a3.31,3.31,0,0,1-2.51,0A3.36,3.36,0,0,1,47.39,40.92Z"/><polygon class="cls-2" points="70 108.91 17.41 108.91 0 91.49 0 0 70 0 70 108.91"/></svg>