<svg id="Layer_1" data-name="Layer 1" xmlns="http://www.w3.org/2000/svg" viewBox="0 0 70 96.42"><defs><style>.cls-1{fill:none;}.cls-2{fill:#16869a;}</style></defs><title>070518_IceCore-Icons</title><rect class="cls-1" width="70" height="96.42"/><rect class="cls-2" x="53.51" y="50.1" width="4.29" height="2"/><rect class="cls-2" x="53.51" y="55.89" width="4.29" height="2"/><rect class="cls-2" x="53.51" y="61.68" width="4.29" height="2"/><rect class="cls-2" x="53.51" y="32.73" width="4.29" height="2"/><rect class="cls-2" x="53.51" y="38.52" width="4.29" height="2"/><path class="cls-2" d="M51.88,44.26a4.37,4.37,0,0,1-1.42-.95,4.21,4.21,0,0,1-.94-1.4,1,1,0,0,0-1.85,0,4.31,4.31,0,0,1-5.61,2.35,4.31,4.31,0,0,1-1.43-.95,4.37,4.37,0,0,1-.94-1.4,1,1,0,0,0-.92-.62h0a1,1,0,0,0-.93.62,4.34,4.34,0,0,1-.93,1.4,4.52,4.52,0,0,1-1.43.95,4.4,4.4,0,0,1-3.25,0,4.31,4.31,0,0,1-1.43-.95,4.54,4.54,0,0,1-.94-1.4,1,1,0,0,0-.92-.62h0a1,1,0,0,0-.92.62,4.37,4.37,0,0,1-.94,1.4,4.31,4.31,0,0,1-4.68.95A4.37,4.37,0,0,1,21,43.31a4.21,4.21,0,0,1-.94-1.4,1,1,0,0,0-1.85,0,4.31,4.31,0,0,1-5.61,2.35l-.76,1.85a6.31,6.31,0,0,0,6.85-1.39,5,5,0,0,0,.44-.49c.14.17.29.33.45.49a6.3,6.3,0,0,0,6.84,1.39,6.27,6.27,0,0,0,2.09-1.39c.16-.16.31-.32.45-.49.14.17.29.33.45.49a6.27,6.27,0,0,0,2.09,1.39,6.3,6.3,0,0,0,6.84-1.39c.16-.16.31-.32.45-.49.14.17.29.33.44.49a6.31,6.31,0,0,0,8.94,0,5,5,0,0,0,.44-.49c.14.17.29.33.45.49a6.37,6.37,0,0,0,2.09,1.39,6.26,6.26,0,0,0,2.38.46H57.8v-2H53.51A4.33,4.33,0,0,1,51.88,44.26Z"/></svg>