<svg id="Layer_1" data-name="Layer 1" xmlns="http://www.w3.org/2000/svg" viewBox="0 0 70 96.42"><defs><style>.cls-1{fill:none;}.cls-2{fill:#16869a;}</style></defs><title>070518_IceCore-Icons</title><rect class="cls-1" width="70" height="96.42"/><polygon class="cls-2" points="22.21 47.3 19.81 48.89 19.81 46.02 17.81 46.02 17.81 50.23 14.31 52.56 15.42 54.22 17.81 52.63 17.81 55.5 19.81 55.5 19.81 52.63 22.21 54.22 23.32 52.56 20.62 50.76 23.32 48.96 22.21 47.3"/><rect class="cls-2" x="14.66" y="47.7" width="2" height="1.91" transform="translate(-33.51 34.7) rotate(-56.31)"/><path class="cls-2" d="M42.72,64.34a7.84,7.84,0,0,0-1.64-2.43A7.1,7.1,0,0,0,40,61V32.28a4.33,4.33,0,0,0-8.65,0h2a2.33,2.33,0,0,1,4.65,0V61.57a1,1,0,0,0,.5.86,5.61,5.61,0,0,1,2.82,4.89,5.66,5.66,0,0,1-1.65,4,5.75,5.75,0,0,1-1.83,1.22,5.65,5.65,0,0,1-6.15-1.22,5.55,5.55,0,0,1-1.65-4,5.55,5.55,0,0,1,1.65-4,5.55,5.55,0,0,1,1.79-1.21l-.78-1.84a7.65,7.65,0,0,0-4.08,10,7.41,7.41,0,0,0,1.66,2.48,7.62,7.62,0,0,0,2.47,1.66,7.73,7.73,0,0,0,2.93.58,7.64,7.64,0,0,0,2.92-.58,7.56,7.56,0,0,0,2.48-1.66,7.41,7.41,0,0,0,1.66-2.48,7.5,7.5,0,0,0,.58-2.92A7.63,7.63,0,0,0,42.72,64.34Z"/><rect class="cls-2" x="30.96" y="34.75" width="4.33" height="2"/><rect class="cls-2" x="30.96" y="40.01" width="4.33" height="2"/><rect class="cls-2" x="30.96" y="45.28" width="4.33" height="2"/><rect class="cls-2" x="30.96" y="50.54" width="4.33" height="2"/><rect class="cls-2" x="28.75" y="55.8" width="6.55" height="2"/></svg>